<?xml version='1.0' encoding='iso-8859-1'?>
<!DOCTYPE svg PUBLIC '-//W3C//DTD SVG 1.1//EN' 'http://www.w3.org/Graphics/SVG/1.1/DTD/svg11.dtd'>
<svg version="1.1" xmlns="http://www.w3.org/2000/svg" viewBox="0 0 425.48 425.48" xmlns:xlink="http://www.w3.org/1999/xlink" enable-background="new 0 0 425.48 425.48">
  <g>
    <path d="m414.221,100.116l-22.783-44.493c-1.656-3.235-3.58-6.275-5.717-9.124l4.675-14.217c2.156-6.558-1.412-13.623-7.97-15.779-6.558-2.157-13.623,1.413-15.779,7.97l-1.47,4.47c-0.832-0.44-1.674-0.864-2.529-1.268l.145-15.056c0.066-6.903-5.476-12.553-12.379-12.62-6.872-0.075-12.553,5.476-12.62,12.379l-.089,9.251c-0.826-0.026-1.651-0.032-2.476-0.025l-5.481-11.109c-3.055-6.19-10.548-8.732-16.741-5.678-6.191,3.055-8.733,10.55-5.678,16.741l2.763,5.599c-0.924,0.419-1.842,0.86-2.752,1.325-0.078,0.04-0.158,0.084-0.236,0.124l-9.48-6.839c-5.598-4.039-13.412-2.776-17.45,2.824-4.039,5.599-2.775,13.412 2.824,17.45l4.233,3.054c-16.288,18.827-49.686,44.913-95.627,61.821-37.114,13.659-93.92,25.206-153.79,2.639-3.105-1.17-6.55-1.058-9.573,0.313s-5.376,3.889-6.541,6.998c-17.351,46.312-15.541,96.57 5.099,141.517 20.637,44.942 57.584,79.07 104.035,96.099 7.011,2.57 14.114,4.688 21.274,6.377l30.673,39.619h-2.742c-6.903,0-12.5,5.596-12.5,12.5s5.597,12.5 12.5,12.5h54.691c6.904,0 12.5-5.596 12.5-12.5 0-6.903-5.596-12.5-12.5-12.5h-20.333l-26.987-34.859c2.172,0.078 4.344,0.127 6.516,0.127 26.593-0.001 53.149-5.851 78.073-17.479 44.892-20.945 78.816-57.977 95.522-104.274 1.356-3.759 2.603-7.597 3.706-11.406 9.463-32.667 6.019-65.426-9.585-93.739l46.72-21.7c3.083-1.432 5.449-4.057 6.554-7.271 1.105-3.211 0.855-6.736-0.695-9.761zm-70.216,135.395c-14.432,39.992-43.758,71.992-82.577,90.104-38.791,18.098-82.115,20.016-121.99,5.397-40.15-14.718-72.084-44.216-89.92-83.059-3.594-7.826-6.523-15.839-8.793-23.973 3.431,1.585 7.003,2.969 10.709,4.081 1.198,0.359 2.407,0.531 3.597,0.531 5.376,0 10.344-3.497 11.968-8.912 1.984-6.612-1.769-13.581-8.381-15.564-13.601-4.08-20.754-11.405-23.528-14.891-0.134-2.747-0.19-5.498-0.179-8.249 5.966,2.099 13.293,3.736 22.305,4.524 0.371,0.032 0.738,0.048 1.103,0.048 6.411,0 11.87-4.906 12.438-11.412 0.601-6.877-4.487-12.94-11.364-13.542-11.893-1.04-18.557-3.72-22.168-5.956 1.016-5.859 2.365-11.688 4.049-17.462 60.952,19.016 121.454,9.117 170.635-11.424 2.088,13.096 8.404,25.243 18.242,34.578 10.962,10.402 25.177,16.263 40.028,16.718 7.15,12.84 18.783,22.785 32.748,27.784 6.649,2.38 13.6,3.559 20.533,3.559 9.597,0 19.151-2.279 27.831-6.73-0.404,7.922-1.75,15.947-4.076,23.973-0.956,3.298-2.036,6.621-3.21,9.877zm-5.779-113.35c-3.379,1.569-5.881,4.564-6.826,8.168-0.944,3.604-0.232,7.441 1.942,10.466 7.496,10.427 12.69,21.854 15.53,33.853l-8.442,4.507c-9.07,4.847-19.397,5.607-29.079,2.141-9.689-3.469-17.193-10.617-21.115-20.092l-.71-1.73c-2.136-5.206-7.486-8.342-13.071-7.663-10.684,1.296-21.29-2.206-29.098-9.615-7.641-7.25-11.679-17.375-11.162-27.873 33.358-17.552 59.459-39.234 73.848-57.6 1.769-2.258 5.387-4.293 8.691-5.986 8.912-4.563 19.069-5.383 28.598-2.308s17.291,9.677 21.854,18.589l16.862,32.931-47.822,22.212z"/>
    <path d="m337.942,59.989c-3.29,0-6.51,1.33-8.84,3.66-2.32,2.32-3.66,5.54-3.66,8.83s1.34,6.52 3.66,8.84c2.33,2.33 5.55,3.66 8.84,3.66s6.51-1.33 8.84-3.66c2.33-2.32 3.66-5.55 3.66-8.84s-1.33-6.51-3.66-8.83c-2.33-2.33-5.55-3.66-8.84-3.66z"/>
  </g>
</svg>
