<?xml version="1.0" encoding="iso-8859-1"?>
<!-- Generator: Adobe Illustrator 19.0.0, SVG Export Plug-In . SVG Version: 6.00 Build 0)  -->
<svg version="1.1" id="Layer_1" xmlns="http://www.w3.org/2000/svg" xmlns:xlink="http://www.w3.org/1999/xlink" x="0px" y="0px"
	 viewBox="0 0 484.915 484.915" style="enable-background:new 0 0 484.915 484.915;" xml:space="preserve">
<g>
	<g>
		<path d="M454.184,118.603c-4.8-9.3-10.2-18.2-16.1-26.7l26.7-8.3c10.6-3.2,16.9-14.8,13.8-25.4c-3.2-10.6-14.8-16.9-25.4-13.8
			l-21.3,6.6l6.4-19.3c3.2-10.6-2.1-22.2-12.7-25.4s-22.2,2.1-25.4,12.7l-8.6,24c-34.8-26.8-76.6-42-119.5-42
			c-101.7,0-150.4,76.3-165.2,121.8c-16.9,51.9-11.7,111.2,14.8,162.1c2.1,3.2,3.2,6.4,5.3,9.5l-115.5,57.2
			c-15.2,8.2-11.7,22.2-9.5,27.5c102.4,160.4,294.5,94.3,336.8,74.1C512.284,356.803,503.084,203.403,454.184,118.603z
			 M319.684,416.203c-36,18-179.4,67.8-270.1-38.1l115.5-57.2c5.3-3.2,17-13.2,7.4-30.7c-6.4-8.5-10.6-16.9-14.8-24.4
			c-21.2-42.4-25.4-90-11.7-131.3c11.7-35,47.9-93.2,126-93.2c58.3,0,115.5,38.1,145.1,95.3
			C465.784,221.803,455.284,345.003,319.684,416.203z"/>
		<circle cx="303.184" cy="107.303" r="20.5"/>
	</g>
</g>
<g>
</g>
<g>
</g>
<g>
</g>
<g>
</g>
<g>
</g>
<g>
</g>
<g>
</g>
<g>
</g>
<g>
</g>
<g>
</g>
<g>
</g>
<g>
</g>
<g>
</g>
<g>
</g>
<g>
</g>
</svg>
