<?xml version="1.0" encoding="iso-8859-1"?>
<!-- Generator: Adobe Illustrator 19.0.0, SVG Export Plug-In . SVG Version: 6.00 Build 0)  -->
<svg version="1.1" id="Layer_1" xmlns="http://www.w3.org/2000/svg" xmlns:xlink="http://www.w3.org/1999/xlink" x="0px" y="0px"
	 viewBox="0 0 512 512" style="enable-background:new 0 0 512 512;" xml:space="preserve">
<g>
	<g>
		<path d="M452.066,220.295c-9.405-41.468-25.832-82.093-47.506-117.484C373.433,51.971,331.442,0,256.008,0
			c-33.585,0-62.618,9.993-88.755,30.55c-20.767,16.332-39.213,38.618-59.812,72.26c-21.675,35.393-38.103,76.019-47.508,117.486
			c-9.097,40.109-11.487,80.091-6.911,115.626c4.382,34.013,14.679,63.943,30.608,88.958c13.971,21.941,32.316,40.22,54.526,54.326
			C183.079,507.739,231.276,512,256.008,512c24.731,0,72.927-4.261,117.845-32.795c22.207-14.107,40.55-32.385,54.519-54.327
			c15.927-25.015,26.224-54.944,30.606-88.959C463.553,300.385,461.163,260.403,452.066,220.295z M425.861,331.655
			c-6.979,54.169-30.501,94.329-69.913,119.365c-39.199,24.901-82.95,27.589-99.94,27.589c-16.992,0-60.745-2.688-99.948-27.589
			c-39.417-25.037-62.941-65.197-69.918-119.364c-8.539-66.323,10.533-147.329,49.778-211.409
			c18.187-29.704,34.702-49.865,51.977-63.45c20.024-15.75,42.303-23.405,68.112-23.405c25.8,0,48.076,7.656,68.099,23.404
			c17.274,13.587,33.79,33.749,51.976,63.452C415.325,184.326,434.399,265.333,425.861,331.655z"/>
	</g>
</g>
<g>
	<g>
		<path d="M351.897,147.413l-26.094,20.836c30.883,38.676,47.727,135.176,22.015,177.205l28.484,17.426
			C410.195,307.48,390.887,196.243,351.897,147.413z"/>
	</g>
</g>
<g>
</g>
<g>
</g>
<g>
</g>
<g>
</g>
<g>
</g>
<g>
</g>
<g>
</g>
<g>
</g>
<g>
</g>
<g>
</g>
<g>
</g>
<g>
</g>
<g>
</g>
<g>
</g>
<g>
</g>
</svg>
