<?xml version="1.0" encoding="utf-8"?>
<!-- Generator: Adobe Illustrator 16.0.0, SVG Export Plug-In . SVG Version: 6.00 Build 0)  -->
<svg version="1.2" baseProfile="tiny" id="Layer_1" xmlns="http://www.w3.org/2000/svg" xmlns:xlink="http://www.w3.org/1999/xlink"
	 x="0px" y="0px" viewBox="0 0 32 32" xml:space="preserve">
<path id="path14" fill="#0A679A" d="M1.811,3.767c0-1.129,0.939-2.046,2.098-2.046h24.184
	c1.157,0,2.096,0.917,2.096,2.046v24.467c0,1.129-0.938,2.045-2.096,2.045H3.909c-1.158,0-2.098-0.916-2.098-2.045V3.767z"/>
<path id="path28" fill="#FFFFFF" d="M10.413,25.628V12.732H6.127v12.896H10.413z M8.271,10.971
	c1.494,0,2.425-0.99,2.425-2.227c-0.028-1.266-0.931-2.229-2.397-2.229c-1.466,0-2.424,0.963-2.424,2.229
	c0,1.237,0.93,2.227,2.369,2.227H8.271L8.271,10.971z"/>
<path id="path30" fill="#FFFFFF" d="M12.785,25.628h4.285v-7.202c0-0.385,0.028-0.771,0.142-1.046
	c0.311-0.77,1.016-1.567,2.199-1.567c1.551,0,2.172,1.182,2.172,2.915v6.9h4.285v-7.396c0-3.96-2.114-5.803-4.934-5.803
	c-2.313,0-3.328,1.292-3.892,2.173h0.027v-1.87h-4.285C12.842,13.941,12.785,25.628,12.785,25.628L12.785,25.628z"/>
</svg>